<svg id="レイヤー_1" data-name="レイヤー 1" xmlns="http://www.w3.org/2000/svg" viewBox="0 0 200 200"><defs><style>.cls-1{fill:none;stroke:#f4e0ff;stroke-miterlimit:10;stroke-width:20px;}</style></defs><path class="cls-1" d="M11.5,186.46S28.68,118,47.61,118c17.82,0-.47,71,16.23,71s25-71,43.91-71c21.16,0-2.71,71,16.22,71,17.82,0,25-71,43.91-71,20.05,0-.48,71,16.23,71H199.5"/><path class="cls-1" d="M11.5,80.46S28.68,12,47.61,12c17.82,0-.47,71,16.23,71s25-71,43.91-71C128.91,12,105,83,124,83c17.82,0,25-71,43.91-71,20.05,0-.48,71,16.23,71H199.5"/></svg>