<svg id="レイヤー_1" data-name="レイヤー 1" xmlns="http://www.w3.org/2000/svg" viewBox="0 0 200 200"><defs><style>.cls-1{fill:#fdffd7;}.cls-2{fill:none;stroke:#fdffd7;stroke-miterlimit:10;stroke-width:20px;}</style></defs><path class="cls-1" d="M50.5,49a30,30,0,1,1-30,30,30,30,0,0,1,30-30m0-20a50,50,0,1,0,50,50,50,50,0,0,0-50-50Z"/><path class="cls-1" d="M149,89.86a30,30,0,1,1-30,30,30,30,0,0,1,30-30m0-20a50,50,0,1,0,50,50,50,50,0,0,0-50-50Z"/><path class="cls-2" d="M188.86,124.86c-6,33-36,65-89.38,65-55.62,0-79.62-42-85.62-60"/><path class="cls-2" d="M10.5,75c6-33,36-65,89.38-65,55.62,0,79.62,42,85.62,60"/></svg>