<svg id="レイヤー_1" data-name="レイヤー 1" xmlns="http://www.w3.org/2000/svg" viewBox="0 0 200 200"><defs><style>.cls-1{fill:#ccceff;}.cls-2{fill:none;stroke:#ccceff;stroke-miterlimit:10;stroke-width:20px;}</style></defs><path class="cls-1" d="M147,84a32.5,32.5,0,1,1-32.5,32.5A32.54,32.54,0,0,1,147,84m0-20a52.5,52.5,0,1,0,52.5,52.5A52.51,52.51,0,0,0,147,64Z"/><path class="cls-2" d="M139.5,156c-9,24-19,33-42,33-19,0-30-18-30-18"/><path class="cls-2" d="M69.5,67c0-27.47,10.42-56,26.05-56s30,17.21,30,51.64V86"/><path class="cls-2" d="M13.5,67c0-27.47,10.42-56,26.05-56s30,17.21,30,51.64V108"/></svg>