<svg id="レイヤー_1" data-name="レイヤー 1" xmlns="http://www.w3.org/2000/svg" viewBox="0 0 200 200"><defs><style>.cls-1{fill:none;stroke:#dafff5;stroke-miterlimit:10;stroke-width:20px;}</style></defs><path class="cls-1" d="M139.5,116c-1-21.56,20-48,37-40,16.63,7.83,15.62,34.42,2,54-16,23-58,25-58,25"/><path class="cls-1" d="M96.5,62c0-25,8-51,20-51s23,15.67,23,47v57c0,30,52,76,52,76"/><path class="cls-1" d="M53.5,62c0-25,8-51,20-51s23,15.67,23,47v99"/><path class="cls-1" d="M10.5,62c0-25,8-51,20-51s23,15.67,23,47v99"/></svg>