<svg id="レイヤー_1" data-name="レイヤー 1" xmlns="http://www.w3.org/2000/svg" viewBox="0 0 200 200"><defs><style>.cls-1,.cls-2{fill:#e0dea1;}.cls-1{opacity:0.5;}.cls-2{opacity:0.2;}.cls-3{fill:#e5e3a3;}</style></defs><circle class="cls-1" cx="47.42" cy="84.79" r="15.21"/><circle class="cls-1" cx="153.08" cy="84.79" r="15.21"/><circle class="cls-2" cx="15.21" cy="108.52" r="15.21"/><circle class="cls-2" cx="184.79" cy="108.52" r="15.21"/><polygon class="cls-3" points="100 87.94 91.77 122.26 95.13 87.13 76.2 116.92 90.79 84.78 63.21 106.81 87.44 81.15 54.21 93.03 85.46 76.62 50.17 77.07 85.05 71.7 51.53 60.67 86.26 66.92 58.14 45.59 88.96 62.78 69.29 33.48 92.86 59.75 83.77 25.65 97.53 58.15 100 22.94 102.47 58.15 116.23 25.65 107.14 59.75 130.71 33.48 111.04 62.78 141.86 45.59 113.74 66.92 148.47 60.67 114.95 71.7 149.83 77.07 114.54 76.62 145.79 93.03 112.56 81.15 136.79 106.81 109.21 84.78 123.8 116.92 104.87 87.13 108.23 122.26 100 87.94"/></svg>