<svg id="レイヤー_1" data-name="レイヤー 1" xmlns="http://www.w3.org/2000/svg" viewBox="0 0 281.91 283.46"><defs><style>.cls-1{fill:#e5e3a3;}.cls-2{fill:#e4f2fa;}</style></defs><title>degree_yellow_01</title><path class="cls-1" d="M194.81,141.73l87.1-14.81-88.27,3.61,82.11-32.6-85.59,21.9,73.54-49-79.17,39.21,61.75-63.19L177,101.71l47.27-74.64-56.37,68L198.6,12.25l-41,78.26L170.42,3.1,146.59,88.17,141,0l-5.63,88.17L111.49,3.1l12.82,87.41-41-78.26L114,95.09l-56.38-68,47.27,74.64L35.63,46.89l61.75,63.19L18.21,70.87l73.54,49L6.16,97.93l82.11,32.6L0,126.92l87.1,14.81L0,156.55l88.27-3.62L6.16,185.53l85.59-21.89-73.54,49,79.17-39.21L35.63,236.57l69.29-54.81L57.65,256.4l56.38-68L83.31,271.21l41-78.26-12.82,87.42,23.84-85.07L141,283.46l5.63-88.16,23.83,85.07L157.6,193l41,78.26-30.71-82.83,56.37,68L177,181.76l69.29,54.81-61.75-63.18L263.7,212.6l-73.54-49,85.59,21.89-82.11-32.6,88.27,3.62ZM141,189.87a48.14,48.14,0,1,1,48.13-48.14A48.14,48.14,0,0,1,141,189.87Z"/><circle class="cls-2" cx="85.04" cy="268.32" r="11.51"/><circle class="cls-1" cx="140.96" cy="141.73" r="44.41"/><circle class="cls-2" cx="196.87" cy="14.44" r="11.51"/></svg>