<svg id="レイヤー_1" data-name="レイヤー 1" xmlns="http://www.w3.org/2000/svg" viewBox="0 0 283.46 283.46"><defs><style>.cls-1{fill:#e5e3a3;}</style></defs><title>アートボード 18</title><path class="cls-1" d="M141.73,145.46A65.77,65.77,0,1,1,76,211.23a65.85,65.85,0,0,1,65.76-65.77m0-6a71.77,71.77,0,1,0,71.77,71.77,71.77,71.77,0,0,0-71.77-71.77Z"/><path class="cls-1" d="M141.73,6.81A65.77,65.77,0,1,1,76,72.58,65.84,65.84,0,0,1,141.73,6.81m0-6A71.77,71.77,0,1,0,213.5,72.58,71.76,71.76,0,0,0,141.73.81Z"/><path class="cls-1" d="M72.77,76A65.77,65.77,0,1,1,7,141.73,65.83,65.83,0,0,1,72.77,76m0-6a71.77,71.77,0,1,0,71.76,71.76A71.76,71.76,0,0,0,72.77,70Z"/><path class="cls-1" d="M210.74,76A65.77,65.77,0,1,1,145,141.73,65.84,65.84,0,0,1,210.74,76m0-6a71.77,71.77,0,1,0,71.77,71.76A71.76,71.76,0,0,0,210.74,70Z"/><path class="cls-1" d="M190.75,125.23a65.77,65.77,0,1,1-46.5,19.27,65.36,65.36,0,0,1,46.5-19.27m0-6a71.77,71.77,0,1,0,50.75,21,71.55,71.55,0,0,0-50.75-21Z"/><path class="cls-1" d="M92.71,27.19a65.77,65.77,0,1,1-46.5,19.26,65.32,65.32,0,0,1,46.5-19.26m0-6a71.77,71.77,0,1,0,50.75,21,71.57,71.57,0,0,0-50.75-21Z"/><path class="cls-1" d="M92.84,124.86a65.76,65.76,0,1,1-46.5,19.26,65.35,65.35,0,0,1,46.5-19.26m0-6a71.77,71.77,0,1,0,50.75,21,71.5,71.5,0,0,0-50.75-21Z"/><path class="cls-1" d="M190.41,27.3A65.77,65.77,0,1,1,143.9,46.56,65.34,65.34,0,0,1,190.41,27.3m0-6a71.77,71.77,0,1,0,50.74,21,71.51,71.51,0,0,0-50.74-21Z"/></svg>