<svg id="レイヤー_1" data-name="レイヤー 1" xmlns="http://www.w3.org/2000/svg" viewBox="0 0 184.25 184.25"><defs><style>.cls-1{fill:#e5e3a3;}.cls-2{fill:#bcccd1;}.cls-3{fill:#eecf51;}.cls-4{fill:#4980b2;}.cls-5{fill:#cb441c;}.cls-6{fill:#f1c785;}.cls-7{fill:#e7d3b7;}</style></defs><circle class="cls-1" cx="92.13" cy="92.13" r="35.43"/><path class="cls-2" d="M92.13,38.43a53.7,53.7,0,1,1-53.7,53.7,53.76,53.76,0,0,1,53.7-53.7m0-3a56.7,56.7,0,1,0,56.69,56.7,56.71,56.71,0,0,0-56.69-56.7Z"/><path class="cls-3" d="M92.13,31.35A60.78,60.78,0,1,1,31.35,92.13,60.85,60.85,0,0,1,92.13,31.35m0-3a63.78,63.78,0,1,0,63.78,63.78A63.77,63.77,0,0,0,92.13,28.35Z"/><path class="cls-4" d="M92.13,24.26A67.87,67.87,0,1,1,24.26,92.13,67.94,67.94,0,0,1,92.13,24.26m0-3A70.87,70.87,0,1,0,163,92.13,70.87,70.87,0,0,0,92.13,21.26Z"/><path class="cls-5" d="M92.13,17.17a75,75,0,1,1-75,75,75,75,0,0,1,75-75m0-3a78,78,0,1,0,78,78,78,78,0,0,0-78-78Z"/><path class="cls-6" d="M92.13,10.09a82,82,0,1,1-82,82,82.14,82.14,0,0,1,82-82m0-3a85,85,0,1,0,85,85,85,85,0,0,0-85-85Z"/><path class="cls-7" d="M92.13,3A89.13,89.13,0,1,1,3,92.13,89.22,89.22,0,0,1,92.13,3m0-3a92.13,92.13,0,1,0,92.12,92.13A92.13,92.13,0,0,0,92.13,0Z"/></svg>