<svg id="レイヤー_1" data-name="レイヤー 1" xmlns="http://www.w3.org/2000/svg" viewBox="0 0 284.74 284.75"><defs><style>.cls-1{fill:#e5e3a3;}</style></defs><title>アートボード 17</title><path class="cls-1" d="M142.64,12.63l64.3,111L200,135.27,147.83,45l-5.25-9.07L137.42,45,122.7,71,109,71l33.69-58.34m0-12L98.57,77l27.62,0,16.44-29L200,147.14l13.91-23.46L142.63.64Z"/><path class="cls-1" d="M158.4,77.51,165,89.3l-104.29.08H50.25l5.31,9,15.12,25.72L63.78,136,30.11,77.69l128.29-.18m3.5-6L19.73,71.7l44,76.31,13.86-23.89L60.74,95.38l114.53-.09L161.9,71.51Z"/><path class="cls-1" d="M94.1,96l13.51.16L55.54,186.56l-5.23,9.07,10.47-.08,29.84-.23,6.85,11.92H30.1L94.1,96m-3.45-6L19.73,213.23h88.11l-13.77-24-33.33.26,57.18-99.23L90.65,90Z"/><path class="cls-1" d="M85,149.48l52.22,90.28,5.24,9.07,5.17-9.12,14.71-26,13.75,0-33.69,58.33-64.29-111L85,149.48m.07-11.87L71.14,161.07l71.26,123,44.07-76.3-27.63-.06-16.44,29L85.06,137.61Z"/><path class="cls-1" d="M221.15,148.72l33.68,58.34-128.29.18-6.62-11.78,104.29-.09h10.47l-5.31-9-15.11-25.72,6.89-11.89m0-12-13.86,23.89,16.89,28.74-114.53.09L123,213.24l142.18-.19-44-76.31Z"/><path class="cls-1" d="M187.47,77.51h67.37l-64,111.19-13.51-.16L229.4,98.19l5.23-9.07-10.47.08-29.84.23-6.85-11.92m-10.37-6,13.77,23.95,33.33-.26L167,194.43l27.27.32L265.21,71.52Z"/></svg>