<svg id="レイヤー_1" data-name="レイヤー 1" xmlns="http://www.w3.org/2000/svg" viewBox="0 0 198.27 197.88"><defs><style>.cls-1{fill:none;stroke:#e5e3a3;stroke-miterlimit:10;stroke-width:14px;}.cls-2{fill:#d64317;}.cls-3{fill:#e5e3a3;}</style></defs><polygon class="cls-1" points="99.13 27.85 49.42 48.44 28.84 98.15 49.42 147.86 99.13 168.45 148.84 147.86 169.43 98.15 148.84 48.44 99.13 27.85"/><rect class="cls-2" x="3" y="92.87" width="192.27" height="10.4"/><path class="cls-3" d="M192.27,95.87v4.4H6v-4.4H192.27m6-6H0v16.4H198.27V89.87Z"/><rect class="cls-2" x="93.94" y="3" width="10.4" height="191.88"/><path class="cls-3" d="M101.33,6V191.88H96.94V6h4.39m6-6H90.94V197.88h16.39V0Z"/><rect class="cls-2" x="3.19" y="93.74" width="191.88" height="10.4" transform="translate(-40.93 99.08) rotate(-45)"/><path class="cls-3" d="M163.3,31.67l3.11,3.11L35,166.21l-3.11-3.11L163.3,31.67m0-8.49L23.38,163.1,35,174.7,174.89,34.78,163.3,23.18Z"/><rect class="cls-2" x="93.94" y="2.13" width="10.4" height="191.88" transform="translate(-40.31 98.82) rotate(-45)"/><path class="cls-3" d="M35,30.8,166.41,162.23l-3.11,3.11L31.86,33.9,35,30.8m0-8.49L23.38,33.9,163.3,173.83l11.59-11.6L35,22.31Z"/><rect class="cls-2" x="94.47" y="5.01" width="9.34" height="188.24"/><rect class="cls-2" x="5.24" y="93.63" width="188.24" height="9.34"/><rect class="cls-2" x="94.7" y="4.59" width="9.34" height="188.24" transform="translate(-40.69 99.17) rotate(-45)"/><rect class="cls-2" x="5.47" y="94.27" width="188.24" height="9.34" transform="translate(-40.79 99.4) rotate(-45)"/></svg>