<svg id="レイヤー_1" data-name="レイヤー 1" xmlns="http://www.w3.org/2000/svg" viewBox="0 0 283.46 283.46"><defs><style>.cls-1,.cls-2,.cls-3,.cls-4{fill:none;stroke-miterlimit:10;stroke-width:3px;}.cls-1{stroke:#cdc6e2;}.cls-2{stroke:#cee1f4;}.cls-3{stroke:#def0f3;}.cls-4{stroke:#fff;}</style></defs><title>アートボード 18_1</title><polygon class="cls-1" points="141.73 4.27 50.63 37.43 2.15 121.39 18.99 216.87 93.26 279.19 190.21 279.19 264.48 216.87 281.31 121.39 232.84 37.43 141.73 4.27"/><line class="cls-2" x1="141.73" y1="4.27" x2="2.15" y2="121.39"/><line class="cls-2" x1="50.63" y1="37.43" x2="18.99" y2="216.87"/><line class="cls-2" x1="2.15" y1="121.39" x2="93.26" y2="279.19"/><line class="cls-2" x1="18.99" y1="216.87" x2="190.21" y2="279.19"/><line class="cls-2" x1="93.26" y1="279.19" x2="264.48" y2="216.87"/><line class="cls-2" x1="190.21" y1="279.19" x2="281.31" y2="121.39"/><line class="cls-2" x1="264.48" y1="216.87" x2="232.84" y2="37.43"/><line class="cls-2" x1="281.31" y1="121.39" x2="141.73" y2="4.27"/><line class="cls-2" x1="50.63" y1="37.43" x2="232.84" y2="37.43"/><line class="cls-3" x1="141.73" y1="4.27" x2="18.99" y2="216.87"/><line class="cls-3" x1="141.73" y1="4.27" x2="264.48" y2="216.87"/><line class="cls-3" x1="50.63" y1="37.43" x2="93.26" y2="279.19"/><line class="cls-3" x1="281.31" y1="121.39" x2="93.26" y2="279.19"/><line class="cls-3" x1="232.84" y1="37.43" x2="190.21" y2="279.19"/><line class="cls-3" x1="190.21" y1="279.19" x2="2.15" y2="121.39"/><line class="cls-3" x1="232.84" y1="37.43" x2="2.15" y2="121.39"/><line class="cls-3" x1="50.63" y1="37.43" x2="281.31" y2="121.39"/><line class="cls-3" x1="264.48" y1="216.87" x2="18.99" y2="216.87"/><line class="cls-4" x1="141.73" y1="4.27" x2="190.21" y2="279.19"/><line class="cls-4" x1="50.63" y1="37.43" x2="190.21" y2="279.19"/><line class="cls-4" x1="281.31" y1="121.39" x2="2.15" y2="121.39"/><line class="cls-4" x1="18.99" y1="216.87" x2="281.31" y2="121.39"/><line class="cls-4" x1="50.63" y1="37.43" x2="264.48" y2="216.87"/><line class="cls-4" x1="141.73" y1="4.27" x2="93.26" y2="279.19"/><line class="cls-4" x1="232.84" y1="37.43" x2="18.99" y2="216.87"/><line class="cls-4" x1="93.26" y1="279.19" x2="232.84" y2="37.43"/><line class="cls-4" x1="2.15" y1="121.39" x2="264.48" y2="216.87"/></svg>