<svg id="レイヤー_1" data-name="レイヤー 1" xmlns="http://www.w3.org/2000/svg" viewBox="0 0 204.81 196.79"><defs><style>.cls-1{fill:#c5c5ac;}</style></defs><title>幾何学</title><path class="cls-1" d="M92.2,79.23l100.37.4-51.9,37.71-1.94-6.09,27.19-19L176.37,85H163.63L90.41,85l1.79-5.81m-2.94-4L85,89l78.65,0L134,109.66l4.52,14.17,66.27-48.15L89.26,75.22Z"/><path class="cls-1" d="M102.68,14.55l19.75,60.77h-6.38L106.48,43.8l-3.7-12.19L98.85,43.73,76.1,113.85l-5-3.53,31.54-95.77m0-12.86L66.42,111.87l11.8,8.4L102.66,45l10.43,34.36h14.84L102.7,1.69Z"/><path class="cls-1" d="M77,79.21l-2,6.08-33.81-.66-12.73-.25,10.3,7.49,60.14,43.65L94,139.12,12.23,79.21H77m5.52-4H0l94,68.87,11.72-8.58L41.14,88.63l36.77.71,4.64-14.13Z"/><path class="cls-1" d="M127.05,120.13l1.91,5.8L46.47,185.36l20-61.39,5.15,3.78-11,31.71-4.17,12L66.72,164l60.33-43.87m2.09-6.46-64.77,47.1,11.95-34.5-12-8.8L38.89,195.75l94.78-68.28-4.53-13.8Z"/><path class="cls-1" d="M127.34,89.24l31.13,97.13-53-38.51,5.19-3.76,27.54,20.84,10.16,7.68-4-12.11L121.22,89.24h6.12m2.92-4H115.72l24.89,76.51-29.9-22.63-12.06,8.73L166,196.79,130.26,85.24Z"/></svg>