<svg id="レイヤー_1" data-name="レイヤー 1" xmlns="http://www.w3.org/2000/svg" viewBox="0 0 200.05 200.05"><defs><style>.cls-1,.cls-2,.cls-3,.cls-4,.cls-5,.cls-6,.cls-7{fill:none;}.cls-1{stroke:#eecf51;}.cls-1,.cls-2,.cls-3,.cls-4,.cls-5,.cls-7{stroke-miterlimit:10;stroke-width:3px;}.cls-2{stroke:#4980b2;}.cls-3{stroke:#cb441c;}.cls-4{stroke:#f1c785;}.cls-5{stroke:#e7d3b7;}.cls-7{stroke:#bcccd1;}.cls-8{fill:#e5e3a3;}</style></defs><path class="cls-1" d="M77.46,40.37A63.82,63.82,0,0,1,163.82,100"/><path class="cls-2" d="M110.46,29.93A70.88,70.88,0,0,1,170.9,99.84"/><path class="cls-3" d="M137,31.4q3.41,1.85,6.68,4.05A77.89,77.89,0,0,1,178,99.93"/><path class="cls-4" d="M156.73,36.64a85.64,85.64,0,0,1,7.38,7.49,84.66,84.66,0,0,1,20.95,55.19"/><path class="cls-5" d="M172.64,43.32a92.5,92.5,0,0,1,19.53,56.26"/><circle class="cls-6" cx="100.03" cy="100.03" r="100"/><path class="cls-7" d="M53.18,68.09a56.7,56.7,0,0,1,103.55,32"/><circle class="cls-8" cx="98.62" cy="101.99" r="35.43"/></svg>