<svg id="レイヤー_1" data-name="レイヤー 1" xmlns="http://www.w3.org/2000/svg" viewBox="0 0 276.98 279.25"><defs><style>.cls-1{fill:#fff;}.cls-2{fill:#fdfad8;}.cls-3{fill:#fde9d1;}.cls-4{fill:#fce9e7;}.cls-5{fill:#f0e6f2;}.cls-6{fill:#e7e7f4;}.cls-7{fill:#e5f4fc;}</style></defs><title>アートボード 14</title><polygon class="cls-1" points="162.16 98.64 138.8 5.43 115.43 98.64 139.55 138.78 162.16 98.64"/><polygon class="cls-2" points="191.3 135.18 249.61 58.8 162.16 98.64 146.32 142.04 191.3 135.18"/><polygon class="cls-3" points="180.9 180.74 276.98 178.7 191.3 135.18 147.99 149.36 180.9 180.74"/><polygon class="cls-4" points="143.31 155.22 138.8 201.02 200.29 274.86 180.9 180.74 143.31 155.22"/><polygon class="cls-5" points="96.69 180.74 77.3 274.86 138.8 201.02 135.8 155.22 96.69 180.74"/><polygon class="cls-6" points="86.29 135.18 0.62 178.7 96.69 180.74 131.12 149.36 86.29 135.18"/><polygon class="cls-7" points="115.43 98.64 27.99 58.8 86.29 135.18 132.79 142.04 115.43 98.64"/></svg>