<svg id="レイヤー_1" data-name="レイヤー 1" xmlns="http://www.w3.org/2000/svg" viewBox="0 0 164 162.08"><defs><style>.cls-1,.cls-2{fill:none;stroke-linecap:round;stroke-miterlimit:10;stroke-width:4px;}.cls-1{stroke:#cb441c;}.cls-2{stroke:#e5e3a3;}</style></defs><title>アートボード 12</title><path class="cls-1" d="M3,81.11c6.37,45.54,10.07,76.77,18.51,76.77,8.16,0,13.94-28.62,20.91-76.77"/><path class="cls-1" d="M81.86,81.11C75.49,35.58,71.79,4.35,63.34,4.35,55.18,4.35,49.41,33,42.43,81.11"/><path class="cls-1" d="M81.86,81.11c6.37,45.54,10.07,76.77,18.51,76.77,8.16,0,13.94-28.62,20.91-76.77"/><path class="cls-1" d="M160.71,81.11c-6.37-45.53-10.07-76.76-18.52-76.76C134,4.35,128.26,33,121.28,81.11"/><path class="cls-2" d="M3.33,81c4.24,26.5,6.7,44.67,12.32,44.67,5.43,0,9.27-16.66,13.91-44.67"/><path class="cls-2" d="M55.79,81c-4.24-26.5-6.7-44.67-12.32-44.67C38,36.37,34.2,53,29.56,81"/><path class="cls-2" d="M55.79,81c4.24,26.5,6.7,44.67,12.32,44.67,5.43,0,9.27-16.66,13.91-44.67"/><path class="cls-2" d="M108.25,81c-4.24-26.5-6.7-44.67-12.32-44.67C90.5,36.37,86.66,53,82,81"/><path class="cls-2" d="M108.25,81c4.24,26.5,6.7,44.67,12.32,44.67,5.43,0,9.27-16.66,13.91-44.67"/><path class="cls-2" d="M160.71,81c-4.24-26.5-6.7-44.67-12.32-44.67C143,36.37,139.12,53,134.48,81"/></svg>