<svg id="レイヤー_1" data-name="レイヤー 1" xmlns="http://www.w3.org/2000/svg" viewBox="0 0 283.46 283.46"><defs><style>.cls-1{fill:#e0dea1;}.cls-2{fill:#e5e3a3;}</style></defs><title>アートボード 11</title><path class="cls-1" d="M141.73,88.17l4.67.21L151,89l4.56,1,4.46,1.4,4.32,1.79,4.14,2.16,3.94,2.51,3.71,2.84,3.44,3.16,3.16,3.45,2.84,3.7,2.51,3.94,2.16,4.15,1.79,4.31,1.41,4.46,1,4.56.61,4.63.2,4.67-.2,4.67-.61,4.63-1,4.56-1.41,4.46-1.79,4.32-2.16,4.14-2.51,3.94-2.84,3.71-3.16,3.44-3.44,3.16-3.71,2.84-3.94,2.51-4.14,2.16-4.32,1.79-4.46,1.41-4.56,1-4.63.61-4.67.2-4.67-.2-4.63-.61-4.56-1-4.46-1.41-4.31-1.79L115,188.11,111,185.6l-3.7-2.84-3.45-3.16-3.16-3.44-2.84-3.71-2.51-3.94-2.16-4.14-1.79-4.32L90,155.59,89,151l-.61-4.63-.21-4.67.21-4.67.61-4.63,1-4.56,1.4-4.46,1.79-4.31L95.35,115,97.86,111l2.84-3.7,3.16-3.45,3.45-3.16,3.7-2.84L115,95.35l4.15-2.16,4.31-1.79,4.46-1.4,4.56-1,4.63-.61,4.67-.21m0-88.17-2.35,87.93L129.38.54l5.32,87.79L117.12,2.15l13,87-25-84.32,20.49,85.54L93.26,8.55,121.12,92,81.83,13.28l35,80.68-46-75,41.92,77.32L60.44,25.63,109,99,50.63,33.16,105.35,102,41.51,41.51,102,105.35,33.16,50.63,99,109,25.63,60.44l70.68,52.35L19,70.87l75,46-80.68-35L92,121.12,8.55,93.26l81.82,32.28L4.83,105.05l84.32,25-87-13L88.33,134.7.54,129.38l87.39,10L0,141.73l87.93,2.35-87.39,10,87.79-5.33L2.15,166.34l87-13-84.32,25,85.54-20.49L8.55,190.21,92,162.34,13.28,201.63,94,166.6l-75,46,77.32-41.93L25.63,223,99,174.52,33.16,232.84,102,178.12,41.51,242l63.84-60.51L50.63,250.31,109,184.46,60.44,257.83l52.35-70.67L70.87,264.48l46-75-35,80.68,39.29-78.7L93.26,274.92l32.28-81.82-20.49,85.54,25-84.33-13,87,17.58-86.18-5.32,87.8,10-87.39,2.35,87.92,2.35-87.92,10,87.39-5.33-87.8,17.58,86.18-13-87,25,84.33L157.93,193.1l32.28,81.82-27.87-83.43,39.29,78.7-35-80.68,46,75-41.93-77.32L223,257.83l-48.51-73.37,58.32,65.85-54.72-68.87L242,242l-60.51-63.83,68.87,54.72-65.85-58.32L257.83,223l-70.67-52.36,77.32,41.93-75-46,80.68,35-78.7-39.29,83.43,27.87L193.1,157.93l85.54,20.49-84.33-25,87,13-86.18-17.58,87.8,5.33-87.39-10,87.92-2.35-87.92-2.35,87.39-10-87.8,5.32,86.18-17.58-87,13,84.33-25L193.1,125.54l81.82-32.28-83.43,27.86,78.7-39.29-80.68,35,75-46-77.32,41.92,70.67-52.35L184.46,109l65.85-58.32-68.87,54.72L242,41.51,178.12,102l54.72-68.86L174.52,99,223,25.63,170.67,96.31,212.6,19l-46,75,35-80.68L162.34,92,190.21,8.55,157.93,90.37,178.42,4.83l-25,84.32,13-87L148.76,88.33,154.09.54l-10,87.39L141.73,0Zm12.36.54Zm12.25,1.61h0Zm12.08,2.68Zm11.79,3.72Zm11.42,4.73h0Zm11,5.71ZM223,25.63Zm9.81,7.53ZM242,41.51h0Zm8.36,9.12Zm7.52,9.81h0Zm6.65,10.43Zm5.71,11Zm4.73,11.43Zm3.72,11.79Zm2.67,12.07h0Zm1.62,12.26Z"/><circle class="cls-2" cx="141.73" cy="141.73" r="49.61"/></svg>