<svg id="レイヤー_1" data-name="レイヤー 1" xmlns="http://www.w3.org/2000/svg" viewBox="0 0 200 200.26"><defs><style>.cls-1{fill:#c1d3ed;}.cls-2{fill:#c9cae5;}.cls-3{fill:#edddec;}.cls-4{fill:#fadfeb;}.cls-5{fill:#fce5dc;}.cls-6{fill:#faeaaf;}.cls-7{fill:#faf5ba;}.cls-8{fill:#f9f9d6;}.cls-9{fill:#f6fbfa;}.cls-10{fill:#d9eee9;}.cls-11{fill:#d1ebf5;}.cls-12{fill:#c3e4f8;}</style></defs><polygon class="cls-1" points="13.36 150.08 51.71 113.07 93.87 103.62 64.65 135.49 13.36 150.08"/><polygon class="cls-2" points="49.96 186.61 64.65 135.49 96.45 106.12 87.06 148.43 49.96 186.61"/><polygon class="cls-3" points="100 200.13 87.06 148.43 100.02 107.18 112.94 148.43 100 200.13"/><polygon class="cls-4" points="150.1 186.47 112.94 148.43 103.64 105.97 135.36 135.49 150.1 186.47"/><polygon class="cls-5" points="186.99 150.09 135.36 135.49 106.5 103.61 148.3 113.07 186.99 150.09"/><polygon class="cls-6" points="200 99.87 148.3 113.07 107.05 99.85 148.3 87.19 200 99.87"/><polygon class="cls-7" points="187.01 49.69 148.3 87.19 106.5 96.15 135.36 64.78 187.01 49.69"/><polygon class="cls-8" points="150.54 12.93 135.36 64.78 104.05 93.42 112.94 51.83 150.54 12.93"/><polygon class="cls-9" points="100 -0.13 112.94 51.83 99.99 92.82 87.06 51.83 100 -0.13"/><polygon class="cls-10" points="49.94 13.07 87.06 51.83 96.4 93.57 64.65 64.78 49.94 13.07"/><polygon class="cls-11" points="13.6 49.97 64.65 64.78 94.09 96.45 51.71 87.19 13.6 49.97"/><polygon class="cls-12" points="0 99.92 51.71 87.19 92.95 99.94 51.71 113.07 0 99.92"/></svg>