<svg id="レイヤー_1" data-name="レイヤー 1" xmlns="http://www.w3.org/2000/svg" viewBox="0 0 230 230"><defs><style>.cls-1{fill:#171b28;}.cls-2{fill:#c1d3ed;}.cls-3{fill:#c9cae5;}.cls-4{fill:#edddec;}.cls-5{fill:#fadfeb;}.cls-6{fill:#fce5dc;}.cls-7{fill:#faeaaf;}.cls-8{fill:#faf5ba;}.cls-9{fill:#f9f9d6;}.cls-10{fill:#f6fbfa;}.cls-11{fill:#d9eee9;}.cls-12{fill:#d1ebf5;}.cls-13{fill:#c3e4f8;}</style></defs><rect class="cls-1" x="-25" y="-25.13" width="280" height="280"/><polygon class="cls-2" points="28.36 164.95 66.71 127.94 108.87 118.49 79.65 150.35 28.36 164.95"/><polygon class="cls-3" points="64.96 201.48 79.65 150.35 111.45 120.99 102.06 163.3 64.96 201.48"/><polygon class="cls-4" points="115 215 102.06 163.3 115.02 122.05 127.94 163.3 115 215"/><polygon class="cls-5" points="165.1 201.34 127.94 163.3 118.64 120.84 150.36 150.35 165.1 201.34"/><polygon class="cls-6" points="201.99 164.96 150.36 150.35 121.5 118.47 163.3 127.94 201.99 164.96"/><polygon class="cls-7" points="215 114.74 163.3 127.94 122.05 114.72 163.3 102.06 215 114.74"/><polygon class="cls-8" points="202.01 64.56 163.3 102.06 121.5 111.02 150.36 79.64 202.01 64.56"/><polygon class="cls-9" points="165.54 27.8 150.36 79.64 119.05 108.29 127.94 66.7 165.54 27.8"/><polygon class="cls-10" points="115 14.74 127.94 66.7 114.99 107.69 102.06 66.7 115 14.74"/><polygon class="cls-11" points="64.94 27.94 102.06 66.7 111.4 108.44 79.65 79.64 64.94 27.94"/><polygon class="cls-12" points="28.6 64.83 79.65 79.64 109.09 111.32 66.71 102.06 28.6 64.83"/><polygon class="cls-13" points="15 114.79 66.71 102.06 107.95 114.81 66.71 127.94 15 114.79"/></svg>